<?xml version="1.0" encoding="utf-8"?>
<!-- Generator: Adobe Illustrator 23.0.4, SVG Export Plug-In . SVG Version: 6.00 Build 0)  -->
<svg version="1.1" id="レイヤー_1" xmlns="http://www.w3.org/2000/svg" xmlns:xlink="http://www.w3.org/1999/xlink" x="0px"
	 y="0px" viewBox="0 0 560 564" style="enable-background:new 0 0 560 564;" xml:space="preserve" width="560" height="564">
<style type="text/css">
	.st0{fill:#D3B799;}
</style>
<path class="st0" d="M559.868,0H0.11C0.044,0,0,0.066,0,0.131v563.327c0,0.066,0.044,0.131,0.11,0.131h559.758
	c0.088,0,0.132-0.066,0.132-0.131V0.131C560,0.066,559.956,0,559.868,0z M529.937,314.993h-1.273v-72.634h1.273V314.993z
	 M527.37,314.993h-1.273v-72.634h1.273V314.993z M524.802,314.993h-1.272v-72.634h1.272V314.993z M522.301,314.993h-6.342v-72.634
	h6.342V314.993z M514.665,314.993h-1.273v-72.634h1.273V314.993z M512.163,314.993h-1.273v-72.634h1.273V314.993z M509.596,314.993
	h-1.273v-72.634h1.273V314.993z M507.072,314.993h-1.251v-72.634h1.251V314.993z M504.527,314.993h-1.273v-72.634h1.273V314.993z
	 M501.959,314.993h-1.207v-72.634h1.207V314.993z M499.457,314.993h-1.272v-72.634h1.272V314.993z M496.89,314.993h-6.341v-72.634
	h6.341V314.993z M489.32,314.993h-1.273v-72.634h1.273V314.993z M486.752,314.993h-1.272v-72.634h1.272V314.993z M484.251,314.993
	h-1.272v-72.634h1.272V314.993z M481.662,314.993h-1.251v-72.634h1.251V314.993z M479.116,314.993h-1.206v-72.634h1.206V314.993z
	 M476.614,314.993h-1.273v-72.634h1.273V314.993z M474.047,314.993h-1.273v-72.634h1.273V314.993z M471.545,314.993h-6.341v-72.634
	h6.341V314.993z M463.909,314.993h-1.251v-72.634h1.251V314.993z M461.408,314.993h-1.273v-72.634h1.273V314.993z M458.84,314.993
	h-1.273v-72.634h1.273V314.993z M456.339,314.993h-1.273v-72.634h1.273V314.993z M453.771,314.993h-1.273v-72.634h1.273V314.993z
	 M451.204,314.993h-1.272v-72.634h1.272V314.993z M448.702,314.993h-1.273v-72.634h1.273V314.993z M446.135,314.993h-6.342v-72.634
	h6.342V314.993z M438.564,314.993h-1.272v-72.634h1.272V314.993z M435.997,314.993h-1.273v-72.634h1.273V314.993z M433.474,314.993
	h-1.251v-72.634h1.251V314.993z M430.928,314.993h-1.272v-72.634h1.272V314.993z M428.361,314.993h-1.273v-72.634h1.273V314.993z
	 M425.859,314.993h-1.272v-72.634h1.272V314.993z M423.291,314.993h-1.273v-72.634h1.273V314.993z M420.768,314.993h-6.32v-72.634
	h6.32V314.993z M413.154,314.993h-1.273v-72.634h1.273V314.993z M410.652,314.993h-1.272v-72.634h1.272V314.993z M408.085,314.993
	h-1.273v-72.634h1.273V314.993z M405.495,314.993h-1.185v-72.634h1.185V314.993z M403.016,314.993h-1.272v-72.634h1.272V314.993z
	 M400.448,314.993h-1.273v-72.634h1.273V314.993z M397.947,314.993h-1.273v-72.634h1.273V314.993z M395.379,314.993h-6.341v-72.634
	h6.341V314.993z M387.809,314.993h-1.273v-72.634h1.273V314.993z M385.242,314.993h-1.273v-72.634h1.273V314.993z M382.74,314.993
	h-1.273v-72.634h1.273V314.993z M380.172,314.993H378.9v-72.634h1.273V314.993z M377.605,314.993h-1.273v-72.634h1.273V314.993z
	 M375.103,314.993h-1.273v-72.634h1.273V314.993z M372.536,314.993h-1.273v-72.634h1.273V314.993z M370.034,314.993h-6.341v-72.634
	h6.341V314.993z M362.398,314.993h-1.273v-72.634h1.273V314.993z M359.875,314.993h-1.251v-72.634h1.251V314.993z M357.329,314.993
	h-1.272v-72.634h1.272V314.993z M354.762,314.993h-1.273v-72.634h1.273V314.993z M352.26,314.993h-1.273v-72.634h1.273V314.993z
	 M349.693,314.993h-1.272v-72.634h1.272V314.993z M347.191,314.993h-1.273v-72.634h1.273V314.993z M344.602,314.993h-6.32v-72.634
	h6.32V314.993z M337.054,314.993h-1.273v-72.634h1.273V314.993z M334.486,314.993h-1.272v-72.634h1.272V314.993z M331.897,314.993
	h-1.185v-72.634h1.185V314.993z M329.417,314.993h-1.272v-72.634h1.272V314.993z M326.849,314.993h-1.273v-72.634h1.273V314.993z
	 M324.348,314.993h-1.273v-72.634h1.273V314.993z M321.78,314.993h-1.272v-72.634h1.272V314.993z M319.279,314.993h-6.342v-72.634
	h6.342V314.993z M311.643,314.993h-1.273v-72.634h1.273V314.993z M309.141,314.993h-1.272v-72.634h1.272V314.993z M306.574,314.993
	h-1.273v-72.634h1.273V314.993z M531.166,314.993v-72.634h1.272v72.634H531.166z M304.006,242.359v72.634h-1.273v-72.634H304.006z
	 M302.734,317.096h1.273v72.699h-1.273V317.096z M305.301,317.096h1.273v72.699h-1.273V317.096z M307.868,317.096h1.272v72.699
	h-1.272V317.096z M310.37,317.096h1.273v72.699h-1.273V317.096z M312.937,317.096h6.342v72.699h-6.342V317.096z M320.508,317.096
	h1.272v72.699h-1.272V317.096z M323.075,317.096h1.273v72.699h-1.273V317.096z M325.577,317.096h1.273v72.699h-1.273V317.096z
	 M328.144,317.096h1.272v72.699h-1.272V317.096z M330.712,317.096h1.185v72.699h-1.185V317.096z M333.213,317.096h1.272v72.699
	h-1.272V317.096z M335.781,317.096h1.273v72.699h-1.273V317.096z M338.282,317.096h6.32v72.699h-6.32V317.096z M345.918,317.096
	h1.273v72.699h-1.273V317.096z M348.42,317.096h1.272v72.699h-1.272V317.096z M350.987,317.096h1.273v72.699h-1.273V317.096z
	 M353.489,317.096h1.273v72.699h-1.273V317.096z M356.057,317.096h1.272v72.699h-1.272V317.096z M358.624,317.096h1.251v72.699
	h-1.251V317.096z M361.125,317.096h1.273v72.699h-1.273V317.096z M363.693,317.096h6.341v72.699h-6.341V317.096z M371.263,317.096
	h1.273v72.699h-1.273V317.096z M373.831,317.096h1.273v72.699h-1.273V317.096z M376.332,317.096h1.273v72.699h-1.273V317.096z
	 M378.9,317.096h1.273v72.699H378.9V317.096z M381.467,317.096h1.273v72.699h-1.273V317.096z M383.969,317.096h1.273v72.699h-1.273
	V317.096z M386.536,317.096h1.273v72.699h-1.273V317.096z M389.038,317.096h6.341v72.699h-6.341V317.096z M396.674,317.096h1.273
	v72.699h-1.273V317.096z M399.175,317.096h1.273v72.699h-1.273V317.096z M401.743,317.096h1.272v72.699h-1.272V317.096z
	 M404.31,317.096h1.185v72.699h-1.185V317.096z M406.812,317.096h1.273v72.699h-1.273V317.096z M409.38,317.096h1.272v72.699h-1.272
	V317.096z M411.881,317.096h1.273v72.699h-1.273V317.096z M414.448,317.096h6.32v72.699h-6.32V317.096z M422.018,317.096h1.273
	v72.699h-1.273V317.096z M424.586,317.096h1.272v72.699h-1.272V317.096z M427.088,317.096h1.273v72.699h-1.273V317.096z
	 M429.655,317.096h1.272v72.699h-1.272V317.096z M432.223,317.096h1.251v72.699h-1.251V317.096z M434.724,317.096h1.273v72.699
	h-1.273V317.096z M437.292,317.096h1.272v72.699h-1.272V317.096z M439.793,317.096h6.342v72.699h-6.342V317.096z M447.429,317.096
	h1.273v72.699h-1.273V317.096z M449.931,317.096h1.272v72.699h-1.272V317.096z M452.498,317.096h1.273v72.699h-1.273V317.096z
	 M455.066,317.096h1.273v72.699h-1.273V317.096z M457.568,317.096h1.273v72.699h-1.273V317.096z M460.135,317.096h1.273v72.699
	h-1.273V317.096z M462.658,317.096h1.251v72.699h-1.251V317.096z M465.204,317.096h6.341v72.699h-6.341V317.096z M472.774,317.096
	h1.273v72.699h-1.273V317.096z M475.341,317.096h1.273v72.699h-1.273V317.096z M477.909,317.096h1.206v72.699h-1.206V317.096z
	 M480.411,317.096h1.251v72.699h-1.251V317.096z M482.978,317.096h1.272v72.699h-1.272V317.096z M485.48,317.096h1.272v72.699
	h-1.272V317.096z M488.047,317.096h1.273v72.699h-1.273V317.096z M490.549,317.096h6.341v72.699h-6.341V317.096z M498.185,317.096
	h1.272v72.699h-1.272V317.096z M500.752,317.096h1.207v72.699h-1.207V317.096z M503.254,317.096h1.273v72.699h-1.273V317.096z
	 M505.821,317.096h1.251v72.699h-1.251V317.096z M508.323,317.096h1.273v72.699h-1.273V317.096z M510.89,317.096h1.273v72.699
	h-1.273V317.096z M513.392,317.096h1.273v72.699h-1.273V317.096z M515.959,317.096h6.342v72.699h-6.342V317.096z M523.53,317.096
	h1.272v72.699h-1.272V317.096z M526.097,317.096h1.273v72.699h-1.273V317.096z M528.664,317.096h1.273v72.699h-1.273V317.096z
	 M531.166,317.096h1.272v72.699h-1.272V317.096z M533.734,317.096h1.273v72.699h-1.273V317.096z M533.734,314.993v-72.634h1.273
	v72.634H533.734z M533.734,240.254v-72.699h1.273v72.699H533.734z M532.439,240.254h-1.272v-72.699h1.272V240.254z M529.937,240.254
	h-1.273v-72.699h1.273V240.254z M527.37,240.254h-1.273v-72.699h1.273V240.254z M524.802,240.254h-1.272v-72.699h1.272V240.254z
	 M522.301,240.254h-6.342v-72.699h6.342V240.254z M514.665,240.254h-1.273v-72.699h1.273V240.254z M512.163,240.254h-1.273v-72.699
	h1.273V240.254z M509.596,240.254h-1.273v-72.699h1.273V240.254z M507.072,240.254h-1.251v-72.699h1.251V240.254z M504.527,240.254
	h-1.273v-72.699h1.273V240.254z M501.959,240.254h-1.207v-72.699h1.207V240.254z M499.457,240.254h-1.272v-72.699h1.272V240.254z
	 M496.89,240.254h-6.341v-72.699h6.341V240.254z M489.32,240.254h-1.273v-72.699h1.273V240.254z M486.752,240.254h-1.272v-72.699
	h1.272V240.254z M484.251,240.254h-1.272v-72.699h1.272V240.254z M481.662,240.254h-1.251v-72.699h1.251V240.254z M479.116,240.254
	h-1.206v-72.699h1.206V240.254z M476.614,240.254h-1.273v-72.699h1.273V240.254z M474.047,240.254h-1.273v-72.699h1.273V240.254z
	 M471.545,240.254h-6.341v-72.699h6.341V240.254z M463.909,240.254h-1.251v-72.699h1.251V240.254z M461.408,240.254h-1.273v-72.699
	h1.273V240.254z M458.84,240.254h-1.273v-72.699h1.273V240.254z M456.339,240.254h-1.273v-72.699h1.273V240.254z M453.771,240.254
	h-1.273v-72.699h1.273V240.254z M451.204,240.254h-1.272v-72.699h1.272V240.254z M448.702,240.254h-1.273v-72.699h1.273V240.254z
	 M446.135,240.254h-6.342v-72.699h6.342V240.254z M438.564,240.254h-1.272v-72.699h1.272V240.254z M435.997,240.254h-1.273v-72.699
	h1.273V240.254z M433.474,240.254h-1.251v-72.699h1.251V240.254z M430.928,240.254h-1.272v-72.699h1.272V240.254z M428.361,240.254
	h-1.273v-72.699h1.273V240.254z M425.859,240.254h-1.272v-72.699h1.272V240.254z M423.291,240.254h-1.273v-72.699h1.273V240.254z
	 M420.768,240.254h-6.32v-72.699h6.32V240.254z M413.154,240.254h-1.273v-72.699h1.273V240.254z M410.652,240.254h-1.272v-72.699
	h1.272V240.254z M408.085,240.254h-1.273v-72.699h1.273V240.254z M405.495,240.254h-1.185v-72.699h1.185V240.254z M403.016,240.254
	h-1.272v-72.699h1.272V240.254z M400.448,240.254h-1.273v-72.699h1.273V240.254z M397.947,240.254h-1.273v-72.699h1.273V240.254z
	 M395.379,240.254h-6.341v-72.699h6.341V240.254z M387.809,240.254h-1.273v-72.699h1.273V240.254z M385.242,240.254h-1.273v-72.699
	h1.273V240.254z M382.74,240.254h-1.273v-72.699h1.273V240.254z M380.172,240.254H378.9v-72.699h1.273V240.254z M377.605,240.254
	h-1.273v-72.699h1.273V240.254z M375.103,240.254h-1.273v-72.699h1.273V240.254z M372.536,240.254h-1.273v-72.699h1.273V240.254z
	 M370.034,240.254h-6.341v-72.699h6.341V240.254z M362.398,240.254h-1.273v-72.699h1.273V240.254z M359.875,240.254h-1.251v-72.699
	h1.251V240.254z M357.329,240.254h-1.272v-72.699h1.272V240.254z M354.762,240.254h-1.273v-72.699h1.273V240.254z M352.26,240.254
	h-1.273v-72.699h1.273V240.254z M349.693,240.254h-1.272v-72.699h1.272V240.254z M347.191,240.254h-1.273v-72.699h1.273V240.254z
	 M344.602,240.254h-6.32v-72.699h6.32V240.254z M337.054,240.254h-1.273v-72.699h1.273V240.254z M334.486,240.254h-1.272v-72.699
	h1.272V240.254z M331.897,240.254h-1.185v-72.699h1.185V240.254z M329.417,240.254h-1.272v-72.699h1.272V240.254z M326.849,240.254
	h-1.273v-72.699h1.273V240.254z M324.348,240.254h-1.273v-72.699h1.273V240.254z M321.78,240.254h-1.272v-72.699h1.272V240.254z
	 M319.279,240.254h-6.342v-72.699h6.342V240.254z M311.643,240.254h-1.273v-72.699h1.273V240.254z M309.141,240.254h-1.272v-72.699
	h1.272V240.254z M306.574,240.254h-1.273v-72.699h1.273V240.254z M304.006,240.254h-1.273v-72.699h1.273V240.254z M301.505,240.254
	h-1.273v-72.699h1.273V240.254z M301.505,242.359v72.634h-1.273v-72.634H301.505z M301.505,317.096v72.699h-1.273v-72.699H301.505z
	 M536.235,389.796v-72.699h1.273v72.699H536.235z M536.235,314.993v-72.634h1.273v72.634H536.235z M536.235,240.254v-72.699h1.273
	v72.699H536.235z M298.937,167.555v72.699h-1.273v-72.699H298.937z M298.937,242.359v72.634h-1.273v-72.634H298.937z
	 M298.937,317.096v72.699h-1.273v-72.699H298.937z M297.664,391.9h1.273v72.699h-1.273V391.9z M300.232,391.9h1.273v72.699h-1.273
	V391.9z M302.734,391.9h1.273v72.699h-1.273V391.9z M305.301,391.9h1.273v72.699h-1.273V391.9z M307.868,391.9h1.272v72.699h-1.272
	V391.9z M310.37,391.9h1.273v72.699h-1.273V391.9z M312.937,391.9h6.342v72.699h-6.342V391.9z M320.508,391.9h1.272v72.699h-1.272
	V391.9z M323.075,391.9h1.273v72.699h-1.273V391.9z M325.577,391.9h1.273v72.699h-1.273V391.9z M328.144,391.9h1.272v72.699h-1.272
	V391.9z M330.712,391.9h1.185v72.699h-1.185V391.9z M333.213,391.9h1.272v72.699h-1.272V391.9z M335.781,391.9h1.273v72.699h-1.273
	V391.9z M338.282,391.9h6.32v72.699h-6.32V391.9z M345.918,391.9h1.273v72.699h-1.273V391.9z M348.42,391.9h1.272v72.699h-1.272
	V391.9z M350.987,391.9h1.273v72.699h-1.273V391.9z M353.489,391.9h1.273v72.699h-1.273V391.9z M356.057,391.9h1.272v72.699h-1.272
	V391.9z M358.624,391.9h1.251v72.699h-1.251V391.9z M361.125,391.9h1.273v72.699h-1.273V391.9z M363.693,391.9h6.341v72.699h-6.341
	V391.9z M371.263,391.9h1.273v72.699h-1.273V391.9z M373.831,391.9h1.273v72.699h-1.273V391.9z M376.332,391.9h1.273v72.699h-1.273
	V391.9z M378.9,391.9h1.273v72.699H378.9V391.9z M381.467,391.9h1.273v72.699h-1.273V391.9z M383.969,391.9h1.273v72.699h-1.273
	V391.9z M386.536,391.9h1.273v72.699h-1.273V391.9z M389.038,391.9h6.341v72.699h-6.341V391.9z M396.674,391.9h1.273v72.699h-1.273
	V391.9z M399.175,391.9h1.273v72.699h-1.273V391.9z M401.743,391.9h1.272v72.699h-1.272V391.9z M404.31,391.9h1.185v72.699h-1.185
	V391.9z M406.812,391.9h1.273v72.699h-1.273V391.9z M409.38,391.9h1.272v72.699h-1.272V391.9z M411.881,391.9h1.273v72.699h-1.273
	V391.9z M414.448,391.9h6.32v72.699h-6.32V391.9z M422.018,391.9h1.273v72.699h-1.273V391.9z M424.586,391.9h1.272v72.699h-1.272
	V391.9z M427.088,391.9h1.273v72.699h-1.273V391.9z M429.655,391.9h1.272v72.699h-1.272V391.9z M432.223,391.9h1.251v72.699h-1.251
	V391.9z M434.724,391.9h1.273v72.699h-1.273V391.9z M437.292,391.9h1.272v72.699h-1.272V391.9z M439.793,391.9h6.342v72.699h-6.342
	V391.9z M447.429,391.9h1.273v72.699h-1.273V391.9z M449.931,391.9h1.272v72.699h-1.272V391.9z M452.498,391.9h1.273v72.699h-1.273
	V391.9z M455.066,391.9h1.273v72.699h-1.273V391.9z M457.568,391.9h1.273v72.699h-1.273V391.9z M460.135,391.9h1.273v72.699h-1.273
	V391.9z M462.658,391.9h1.251v72.699h-1.251V391.9z M465.204,391.9h6.341v72.699h-6.341V391.9z M472.774,391.9h1.273v72.699h-1.273
	V391.9z M475.341,391.9h1.273v72.699h-1.273V391.9z M477.909,391.9h1.206v72.699h-1.206V391.9z M480.411,391.9h1.251v72.699h-1.251
	V391.9z M482.978,391.9h1.272v72.699h-1.272V391.9z M485.48,391.9h1.272v72.699h-1.272V391.9z M488.047,391.9h1.273v72.699h-1.273
	V391.9z M490.549,391.9h6.341v72.699h-6.341V391.9z M498.185,391.9h1.272v72.699h-1.272V391.9z M500.752,391.9h1.207v72.699h-1.207
	V391.9z M503.254,391.9h1.273v72.699h-1.273V391.9z M505.821,391.9h1.251v72.699h-1.251V391.9z M508.323,391.9h1.273v72.699h-1.273
	V391.9z M510.89,391.9h1.273v72.699h-1.273V391.9z M513.392,391.9h1.273v72.699h-1.273V391.9z M515.959,391.9h6.342v72.699h-6.342
	V391.9z M523.53,391.9h1.272v72.699h-1.272V391.9z M526.097,391.9h1.273v72.699h-1.273V391.9z M528.664,391.9h1.273v72.699h-1.273
	V391.9z M531.166,391.9h1.272v72.699h-1.272V391.9z M533.734,391.9h1.273v72.699h-1.273V391.9z M536.235,391.9h1.273v72.699h-1.273
	V391.9z M537.508,165.452h-1.273V92.817h1.273V165.452z M535.007,165.452h-1.273V92.817h1.273V165.452z M532.439,165.452h-1.272
	V92.817h1.272V165.452z M529.937,165.452h-1.273V92.817h1.273V165.452z M527.37,165.452h-1.273V92.817h1.273V165.452z
	 M524.802,165.452h-1.272V92.817h1.272V165.452z M522.301,165.452h-6.342V92.817h6.342V165.452z M514.665,165.452h-1.273V92.817
	h1.273V165.452z M512.163,165.452h-1.273V92.817h1.273V165.452z M509.596,165.452h-1.273V92.817h1.273V165.452z M507.072,165.452
	h-1.251V92.817h1.251V165.452z M504.527,165.452h-1.273V92.817h1.273V165.452z M501.959,165.452h-1.207V92.817h1.207V165.452z
	 M499.457,165.452h-1.272V92.817h1.272V165.452z M496.89,165.452h-6.341V92.817h6.341V165.452z M489.32,165.452h-1.273V92.817h1.273
	V165.452z M486.752,165.452h-1.272V92.817h1.272V165.452z M484.251,165.452h-1.272V92.817h1.272V165.452z M481.662,165.452h-1.251
	V92.817h1.251V165.452z M479.116,165.452h-1.206V92.817h1.206V165.452z M476.614,165.452h-1.273V92.817h1.273V165.452z
	 M474.047,165.452h-1.273V92.817h1.273V165.452z M471.545,165.452h-6.341V92.817h6.341V165.452z M463.909,165.452h-1.251V92.817
	h1.251V165.452z M461.408,165.452h-1.273V92.817h1.273V165.452z M458.84,165.452h-1.273V92.817h1.273V165.452z M456.339,165.452
	h-1.273V92.817h1.273V165.452z M453.771,165.452h-1.273V92.817h1.273V165.452z M451.204,165.452h-1.272V92.817h1.272V165.452z
	 M448.702,165.452h-1.273V92.817h1.273V165.452z M446.135,165.452h-6.342V92.817h6.342V165.452z M438.564,165.452h-1.272V92.817
	h1.272V165.452z M435.997,165.452h-1.273V92.817h1.273V165.452z M433.474,165.452h-1.251V92.817h1.251V165.452z M430.928,165.452
	h-1.272V92.817h1.272V165.452z M428.361,165.452h-1.273V92.817h1.273V165.452z M425.859,165.452h-1.272V92.817h1.272V165.452z
	 M423.291,165.452h-1.273V92.817h1.273V165.452z M420.768,165.452h-6.32V92.817h6.32V165.452z M413.154,165.452h-1.273V92.817h1.273
	V165.452z M410.652,165.452h-1.272V92.817h1.272V165.452z M408.085,165.452h-1.273V92.817h1.273V165.452z M405.495,165.452h-1.185
	V92.817h1.185V165.452z M403.016,165.452h-1.272V92.817h1.272V165.452z M400.448,165.452h-1.273V92.817h1.273V165.452z
	 M397.947,165.452h-1.273V92.817h1.273V165.452z M395.379,165.452h-6.341V92.817h6.341V165.452z M387.809,165.452h-1.273V92.817
	h1.273V165.452z M385.242,165.452h-1.273V92.817h1.273V165.452z M382.74,165.452h-1.273V92.817h1.273V165.452z M380.172,165.452
	H378.9V92.817h1.273V165.452z M377.605,165.452h-1.273V92.817h1.273V165.452z M375.103,165.452h-1.273V92.817h1.273V165.452z
	 M372.536,165.452h-1.273V92.817h1.273V165.452z M370.034,165.452h-6.341V92.817h6.341V165.452z M362.398,165.452h-1.273V92.817
	h1.273V165.452z M359.875,165.452h-1.251V92.817h1.251V165.452z M357.329,165.452h-1.272V92.817h1.272V165.452z M354.762,165.452
	h-1.273V92.817h1.273V165.452z M352.26,165.452h-1.273V92.817h1.273V165.452z M349.693,165.452h-1.272V92.817h1.272V165.452z
	 M347.191,165.452h-1.273V92.817h1.273V165.452z M344.602,165.452h-6.32V92.817h6.32V165.452z M337.054,165.452h-1.273V92.817h1.273
	V165.452z M334.486,165.452h-1.272V92.817h1.272V165.452z M331.897,165.452h-1.185V92.817h1.185V165.452z M329.417,165.452h-1.272
	V92.817h1.272V165.452z M326.849,165.452h-1.273V92.817h1.273V165.452z M324.348,165.452h-1.273V92.817h1.273V165.452z
	 M321.78,165.452h-1.272V92.817h1.272V165.452z M319.279,165.452h-6.342V92.817h6.342V165.452z M311.643,165.452h-1.273V92.817
	h1.273V165.452z M309.141,165.452h-1.272V92.817h1.272V165.452z M306.574,165.452h-1.273V92.817h1.273V165.452z M304.006,165.452
	h-1.273V92.817h1.273V165.452z M301.505,165.452h-1.273V92.817h1.273V165.452z M298.937,165.452h-1.273V92.817h1.273V165.452z
	 M538.803,464.599V391.9h1.272v72.699H538.803z M538.803,389.796v-72.699h1.272v72.699H538.803z M538.803,314.993v-72.634h1.272
	v72.634H538.803z M538.803,240.254v-72.699h1.272v72.699H538.803z M538.803,165.452V92.817h1.272v72.634H538.803z M296.414,92.817
	v72.634h-1.251V92.817H296.414z M296.414,167.555v72.699h-1.251v-72.699H296.414z M296.414,242.359v72.634h-1.251v-72.634H296.414z
	 M296.414,317.096v72.699h-1.251v-72.699H296.414z M296.414,391.9v72.699h-1.251V391.9H296.414z M541.304,464.599V391.9h6.341
	v72.699H541.304z M541.304,389.796v-72.699h6.341v72.699H541.304z M541.304,314.993v-72.634h6.341v72.634H541.304z M541.304,240.254
	v-72.699h6.341v72.699H541.304z M541.304,165.452V92.817h6.341v72.634H541.304z M293.868,92.817v72.634h-6.341V92.817H293.868z
	 M293.868,167.555v72.699h-6.341v-72.699H293.868z M293.868,242.359v72.634h-6.341v-72.634H293.868z M293.868,317.096v72.699h-6.341
	v-72.699H293.868z M293.868,391.9v72.699h-6.341V391.9H293.868z M287.527,466.703h6.341V539.4h-6.341V466.703z M295.163,466.703
	h1.251V539.4h-1.251V466.703z M297.664,466.703h1.273V539.4h-1.273V466.703z M300.232,466.703h1.273V539.4h-1.273V466.703z
	 M302.734,466.703h1.273V539.4h-1.273V466.703z M305.301,466.703h1.273V539.4h-1.273V466.703z M307.868,466.703h1.272V539.4h-1.272
	V466.703z M310.37,466.703h1.273V539.4h-1.273V466.703z M312.937,466.703h6.342V539.4h-6.342V466.703z M320.508,466.703h1.272V539.4
	h-1.272V466.703z M323.075,466.703h1.273V539.4h-1.273V466.703z M325.577,466.703h1.273V539.4h-1.273V466.703z M328.144,466.703
	h1.272V539.4h-1.272V466.703z M330.712,466.703h1.185V539.4h-1.185V466.703z M333.213,466.703h1.272V539.4h-1.272V466.703z
	 M335.781,466.703h1.273V539.4h-1.273V466.703z M338.282,466.703h6.32V539.4h-6.32V466.703z M345.918,466.703h1.273V539.4h-1.273
	V466.703z M348.42,466.703h1.272V539.4h-1.272V466.703z M350.987,466.703h1.273V539.4h-1.273V466.703z M353.489,466.703h1.273V539.4
	h-1.273V466.703z M356.057,466.703h1.272V539.4h-1.272V466.703z M358.624,466.703h1.251V539.4h-1.251V466.703z M361.125,466.703
	h1.273V539.4h-1.273V466.703z M363.693,466.703h6.341V539.4h-6.341V466.703z M371.263,466.703h1.273V539.4h-1.273V466.703z
	 M373.831,466.703h1.273V539.4h-1.273V466.703z M376.332,466.703h1.273V539.4h-1.273V466.703z M378.9,466.703h1.273V539.4H378.9
	V466.703z M381.467,466.703h1.273V539.4h-1.273V466.703z M383.969,466.703h1.273V539.4h-1.273V466.703z M386.536,466.703h1.273
	V539.4h-1.273V466.703z M389.038,466.703h6.341V539.4h-6.341V466.703z M396.674,466.703h1.273V539.4h-1.273V466.703z
	 M399.175,466.703h1.273V539.4h-1.273V466.703z M401.743,466.703h1.272V539.4h-1.272V466.703z M404.31,466.703h1.185V539.4h-1.185
	V466.703z M406.812,466.703h1.273V539.4h-1.273V466.703z M409.38,466.703h1.272V539.4h-1.272V466.703z M411.881,466.703h1.273V539.4
	h-1.273V466.703z M414.448,466.703h6.32V539.4h-6.32V466.703z M422.018,466.703h1.273V539.4h-1.273V466.703z M424.586,466.703h1.272
	V539.4h-1.272V466.703z M427.088,466.703h1.273V539.4h-1.273V466.703z M429.655,466.703h1.272V539.4h-1.272V466.703z
	 M432.223,466.703h1.251V539.4h-1.251V466.703z M434.724,466.703h1.273V539.4h-1.273V466.703z M437.292,466.703h1.272V539.4h-1.272
	V466.703z M439.793,466.703h6.342V539.4h-6.342V466.703z M447.429,466.703h1.273V539.4h-1.273V466.703z M449.931,466.703h1.272
	V539.4h-1.272V466.703z M452.498,466.703h1.273V539.4h-1.273V466.703z M455.066,466.703h1.273V539.4h-1.273V466.703z
	 M457.568,466.703h1.273V539.4h-1.273V466.703z M460.135,466.703h1.273V539.4h-1.273V466.703z M462.658,466.703h1.251V539.4h-1.251
	V466.703z M465.204,466.703h6.341V539.4h-6.341V466.703z M472.774,466.703h1.273V539.4h-1.273V466.703z M475.341,466.703h1.273
	V539.4h-1.273V466.703z M477.909,466.703h1.206V539.4h-1.206V466.703z M480.411,466.703h1.251V539.4h-1.251V466.703z
	 M482.978,466.703h1.272V539.4h-1.272V466.703z M485.48,466.703h1.272V539.4h-1.272V466.703z M488.047,466.703h1.273V539.4h-1.273
	V466.703z M490.549,466.703h6.341V539.4h-6.341V466.703z M498.185,466.703h1.272V539.4h-1.272V466.703z M500.752,466.703h1.207
	V539.4h-1.207V466.703z M503.254,466.703h1.273V539.4h-1.273V466.703z M505.821,466.703h1.251V539.4h-1.251V466.703z
	 M508.323,466.703h1.273V539.4h-1.273V466.703z M510.89,466.703h1.273V539.4h-1.273V466.703z M513.392,466.703h1.273V539.4h-1.273
	V466.703z M515.959,466.703h6.342V539.4h-6.342V466.703z M523.53,466.703h1.272V539.4h-1.272V466.703z M526.097,466.703h1.273V539.4
	h-1.273V466.703z M528.664,466.703h1.273V539.4h-1.273V466.703z M531.166,466.703h1.272V539.4h-1.272V466.703z M533.734,466.703
	h1.273V539.4h-1.273V466.703z M536.235,466.703h1.273V539.4h-1.273V466.703z M538.803,466.703h1.272V539.4h-1.272V466.703z
	 M541.304,466.703h6.341V539.4h-6.341V466.703z M547.646,90.648h-6.341V18.011h6.341V90.648z M540.075,90.648h-1.272V18.011h1.272
	V90.648z M537.508,90.648h-1.273V18.011h1.273V90.648z M535.007,90.648h-1.273V18.011h1.273V90.648z M532.439,90.648h-1.272V18.011
	h1.272V90.648z M529.937,90.648h-1.273V18.011h1.273V90.648z M527.37,90.648h-1.273V18.011h1.273V90.648z M524.802,90.648h-1.272
	V18.011h1.272V90.648z M522.301,90.648h-6.342V18.011h6.342V90.648z M514.665,90.648h-1.273V18.011h1.273V90.648z M512.163,90.648
	h-1.273V18.011h1.273V90.648z M509.596,90.648h-1.273V18.011h1.273V90.648z M507.072,90.648h-1.251V18.011h1.251V90.648z
	 M504.527,90.648h-1.273V18.011h1.273V90.648z M501.959,90.648h-1.207V18.011h1.207V90.648z M499.457,90.648h-1.272V18.011h1.272
	V90.648z M496.89,90.648h-6.341V18.011h6.341V90.648z M489.32,90.648h-1.273V18.011h1.273V90.648z M486.752,90.648h-1.272V18.011
	h1.272V90.648z M484.251,90.648h-1.272V18.011h1.272V90.648z M481.662,90.648h-1.251V18.011h1.251V90.648z M479.116,90.648h-1.206
	V18.011h1.206V90.648z M476.614,90.648h-1.273V18.011h1.273V90.648z M474.047,90.648h-1.273V18.011h1.273V90.648z M471.545,90.648
	h-6.341V18.011h6.341V90.648z M463.909,90.648h-1.251V18.011h1.251V90.648z M461.408,90.648h-1.273V18.011h1.273V90.648z
	 M458.84,90.648h-1.273V18.011h1.273V90.648z M456.339,90.648h-1.273V18.011h1.273V90.648z M453.771,90.648h-1.273V18.011h1.273
	V90.648z M451.204,90.648h-1.272V18.011h1.272V90.648z M448.702,90.648h-1.273V18.011h1.273V90.648z M446.135,90.648h-6.342V18.011
	h6.342V90.648z M438.564,90.648h-1.272V18.011h1.272V90.648z M435.997,90.648h-1.273V18.011h1.273V90.648z M433.474,90.648h-1.251
	V18.011h1.251V90.648z M430.928,90.648h-1.272V18.011h1.272V90.648z M428.361,90.648h-1.273V18.011h1.273V90.648z M425.859,90.648
	h-1.272V18.011h1.272V90.648z M423.291,90.648h-1.273V18.011h1.273V90.648z M420.768,90.648h-6.32V18.011h6.32V90.648z
	 M413.154,90.648h-1.273V18.011h1.273V90.648z M410.652,90.648h-1.272V18.011h1.272V90.648z M408.085,90.648h-1.273V18.011h1.273
	V90.648z M405.495,90.648h-1.185V18.011h1.185V90.648z M403.016,90.648h-1.272V18.011h1.272V90.648z M400.448,90.648h-1.273V18.011
	h1.273V90.648z M397.947,90.648h-1.273V18.011h1.273V90.648z M395.379,90.648h-6.341V18.011h6.341V90.648z M387.809,90.648h-1.273
	V18.011h1.273V90.648z M385.242,90.648h-1.273V18.011h1.273V90.648z M382.74,90.648h-1.273V18.011h1.273V90.648z M380.172,90.648
	H378.9V18.011h1.273V90.648z M377.605,90.648h-1.273V18.011h1.273V90.648z M375.103,90.648h-1.273V18.011h1.273V90.648z
	 M372.536,90.648h-1.273V18.011h1.273V90.648z M370.034,90.648h-6.341V18.011h6.341V90.648z M362.398,90.648h-1.273V18.011h1.273
	V90.648z M359.875,90.648h-1.251V18.011h1.251V90.648z M357.329,90.648h-1.272V18.011h1.272V90.648z M354.762,90.648h-1.273V18.011
	h1.273V90.648z M352.26,90.648h-1.273V18.011h1.273V90.648z M349.693,90.648h-1.272V18.011h1.272V90.648z M347.191,90.648h-1.273
	V18.011h1.273V90.648z M344.602,90.648h-6.32V18.011h6.32V90.648z M337.054,90.648h-1.273V18.011h1.273V90.648z M334.486,90.648
	h-1.272V18.011h1.272V90.648z M331.897,90.648h-1.185V18.011h1.185V90.648z M329.417,90.648h-1.272V18.011h1.272V90.648z
	 M326.849,90.648h-1.273V18.011h1.273V90.648z M324.348,90.648h-1.273V18.011h1.273V90.648z M321.78,90.648h-1.272V18.011h1.272
	V90.648z M319.279,90.648h-6.342V18.011h6.342V90.648z M311.643,90.648h-1.273V18.011h1.273V90.648z M309.141,90.648h-1.272V18.011
	h1.272V90.648z M306.574,90.648h-1.273V18.011h1.273V90.648z M304.006,90.648h-1.273V18.011h1.273V90.648z M301.505,90.648h-1.273
	V18.011h1.273V90.648z M298.937,90.648h-1.273V18.011h1.273V90.648z M296.414,90.648h-1.251V18.011h1.251V90.648z M293.868,90.648
	h-6.341V18.011h6.341V90.648z M12.354,466.703h6.342V539.4h-6.342V466.703z M254.699,314.993h-1.272v-72.634h1.272V314.993z
	 M252.197,314.993h-1.272v-72.634h1.272V314.993z M249.608,314.993h-1.251v-72.634h1.251V314.993z M247.128,314.993h-6.341v-72.634
	h6.341V314.993z M239.492,314.993h-1.272v-72.634h1.272V314.993z M236.925,314.993h-1.207v-72.634h1.207V314.993z M234.423,314.993
	h-1.273v-72.634h1.273V314.993z M231.856,314.993h-1.272v-72.634h1.272V314.993z M229.354,314.993h-1.273v-72.634h1.273V314.993z
	 M226.787,314.993h-1.273v-72.634h1.273V314.993z M224.285,314.993h-1.273v-72.634h1.273V314.993z M221.718,314.993h-6.342v-72.634
	h6.342V314.993z M214.082,314.993h-1.207v-72.634h1.207V314.993z M211.58,314.993h-1.273v-72.634h1.273V314.993z M209.013,314.993
	h-1.273v-72.634h1.273V314.993z M206.511,314.993h-1.272v-72.634h1.272V314.993z M203.943,314.993h-1.273v-72.634h1.273V314.993z
	 M201.42,314.993h-1.251v-72.634h1.251V314.993z M198.874,314.993h-1.272v-72.634h1.272V314.993z M196.373,314.993h-6.341v-72.634
	h6.341V314.993z M188.715,314.993h-1.251v-72.634h1.251V314.993z M186.169,314.993h-1.272v-72.634h1.272V314.993z M183.668,314.993
	h-1.273v-72.634h1.273V314.993z M181.1,314.993h-1.273v-72.634h1.273V314.993z M178.599,314.993h-1.272v-72.634h1.272V314.993z
	 M176.031,314.993h-1.273v-72.634h1.273V314.993z M173.53,314.993h-1.273v-72.634h1.273V314.993z M170.962,314.993h-6.341v-72.634
	h6.341V314.993z M163.326,314.993h-1.272v-72.634h1.272V314.993z M160.825,314.993h-1.273v-72.634h1.273V314.993z M158.257,314.993
	h-1.272v-72.634h1.272V314.993z M155.755,314.993h-1.273v-72.634h1.273V314.993z M153.188,314.993h-1.273v-72.634h1.273V314.993z
	 M150.686,314.993h-1.273v-72.634h1.273V314.993z M148.119,314.993h-1.273v-72.634h1.273V314.993z M145.617,314.993h-6.341v-72.634
	h6.341V314.993z M137.981,314.993h-1.272v-72.634h1.272V314.993z M135.414,314.993h-1.273v-72.634h1.273V314.993z M132.912,314.993
	h-1.272v-72.634h1.272V314.993z M130.345,314.993h-1.273v-72.634h1.273V314.993z M127.821,314.993h-1.251v-72.634h1.251V314.993z
	 M125.254,314.993h-1.251v-72.634h1.251V314.993z M122.774,314.993h-1.273v-72.634h1.273V314.993z M120.207,314.993h-6.342v-72.634
	h6.342V314.993z M112.549,314.993h-1.251v-72.634h1.251V314.993z M110.069,314.993h-1.272v-72.634h1.272V314.993z M107.502,314.993
	h-1.273v-72.634h1.273V314.993z M105,314.993h-1.273v-72.634H105V314.993z M102.432,314.993h-1.272v-72.634h1.272V314.993z
	 M99.931,314.993h-1.273v-72.634h1.273V314.993z M97.363,314.993h-1.272v-72.634h1.272V314.993z M94.862,314.993h-6.407v-72.634
	h6.407V314.993z M87.226,314.993h-1.273v-72.634h1.273V314.993z M84.658,314.993h-1.273v-72.634h1.273V314.993z M82.157,314.993
	h-1.273v-72.634h1.273V314.993z M79.589,314.993h-1.273v-72.634h1.273V314.993z M77.088,314.993h-1.272v-72.634h1.272V314.993z
	 M74.52,314.993h-1.273v-72.634h1.273V314.993z M72.018,314.993h-1.272v-72.634h1.272V314.993z M69.451,314.993H63.11v-72.634h6.341
	V314.993z M61.815,314.993h-1.273v-72.634h1.273V314.993z M59.314,314.993h-1.273v-72.634h1.273V314.993z M56.746,314.993h-1.273
	v-72.634h1.273V314.993z M54.244,314.993h-1.273v-72.634h1.273V314.993z M51.655,314.993h-1.251v-72.634h1.251V314.993z
	 M49.175,314.993h-1.251v-72.634h1.251V314.993z M46.608,314.993h-1.273v-72.634h1.273V314.993z M44.107,314.993h-6.408v-72.634
	h6.408V314.993z M36.47,314.993h-1.272v-72.634h1.272V314.993z M33.903,314.993H32.63v-72.634h1.273V314.993z M31.401,314.993
	h-1.273v-72.634h1.273V314.993z M255.994,314.993v-72.634h1.273v72.634H255.994z M28.834,242.359v72.634h-1.273v-72.634H28.834z
	 M27.561,317.096h1.273v72.699h-1.273V317.096z M30.128,317.096h1.273v72.699h-1.273V317.096z M32.63,317.096h1.273v72.699H32.63
	V317.096z M35.198,317.096h1.272v72.699h-1.272V317.096z M37.699,317.096h6.408v72.699h-6.408V317.096z M45.335,317.096h1.273
	v72.699h-1.273V317.096z M47.925,317.096h1.251v72.699h-1.251V317.096z M50.404,317.096h1.251v72.699h-1.251V317.096z
	 M52.972,317.096h1.273v72.699h-1.273V317.096z M55.473,317.096h1.273v72.699h-1.273V317.096z M58.041,317.096h1.273v72.699h-1.273
	V317.096z M60.542,317.096h1.273v72.699h-1.273V317.096z M63.11,317.096h6.341v72.699H63.11V317.096z M70.746,317.096h1.272v72.699
	h-1.272V317.096z M73.247,317.096h1.273v72.699h-1.273V317.096z M75.815,317.096h1.272v72.699h-1.272V317.096z M78.316,317.096
	h1.273v72.699h-1.273V317.096z M80.884,317.096h1.273v72.699h-1.273V317.096z M83.386,317.096h1.273v72.699h-1.273V317.096z
	 M85.953,317.096h1.273v72.699h-1.273V317.096z M88.455,317.096h6.407v72.699h-6.407V317.096z M96.091,317.096h1.272v72.699h-1.272
	V317.096z M98.658,317.096h1.273v72.699h-1.273V317.096z M101.16,317.096h1.272v72.699h-1.272V317.096z M103.727,317.096H105v72.699
	h-1.273V317.096z M106.229,317.096h1.273v72.699h-1.273V317.096z M108.796,317.096h1.272v72.699h-1.272V317.096z M111.298,317.096
	h1.251v72.699h-1.251V317.096z M113.865,317.096h6.342v72.699h-6.342V317.096z M121.501,317.096h1.273v72.699h-1.273V317.096z
	 M124.003,317.096h1.251v72.699h-1.251V317.096z M126.57,317.096h1.251v72.699h-1.251V317.096z M129.072,317.096h1.273v72.699
	h-1.273V317.096z M131.639,317.096h1.272v72.699h-1.272V317.096z M134.141,317.096h1.273v72.699h-1.273V317.096z M136.709,317.096
	h1.272v72.699h-1.272V317.096z M139.276,317.096h6.341v72.699h-6.341V317.096z M146.846,317.096h1.273v72.699h-1.273V317.096z
	 M149.413,317.096h1.273v72.699h-1.273V317.096z M151.915,317.096h1.273v72.699h-1.273V317.096z M154.483,317.096h1.273v72.699
	h-1.273V317.096z M156.984,317.096h1.272v72.699h-1.272V317.096z M159.552,317.096h1.273v72.699h-1.273V317.096z M162.054,317.096
	h1.272v72.699h-1.272V317.096z M164.621,317.096h6.341v72.699h-6.341V317.096z M172.257,317.096h1.273v72.699h-1.273V317.096z
	 M174.758,317.096h1.273v72.699h-1.273V317.096z M177.326,317.096h1.272v72.699h-1.272V317.096z M179.828,317.096h1.273v72.699
	h-1.273V317.096z M182.395,317.096h1.273v72.699h-1.273V317.096z M184.897,317.096h1.272v72.699h-1.272V317.096z M187.464,317.096
	h1.251v72.699h-1.251V317.096z M190.032,317.096h6.341v72.699h-6.341V317.096z M197.602,317.096h1.272v72.699h-1.272V317.096z
	 M200.169,317.096h1.251v72.699h-1.251V317.096z M202.671,317.096h1.273v72.699h-1.273V317.096z M205.238,317.096h1.272v72.699
	h-1.272V317.096z M207.74,317.096h1.273v72.699h-1.273V317.096z M210.307,317.096h1.273v72.699h-1.273V317.096z M212.875,317.096
	h1.207v72.699h-1.207V317.096z M215.376,317.096h6.342v72.699h-6.342V317.096z M223.012,317.096h1.273v72.699h-1.273V317.096z
	 M225.514,317.096h1.273v72.699h-1.273V317.096z M228.081,317.096h1.273v72.699h-1.273V317.096z M230.583,317.096h1.272v72.699
	h-1.272V317.096z M233.151,317.096h1.273v72.699h-1.273V317.096z M235.718,317.096h1.207v72.699h-1.207V317.096z M238.22,317.096
	h1.272v72.699h-1.272V317.096z M240.787,317.096h6.341v72.699h-6.341V317.096z M248.357,317.096h1.251v72.699h-1.251V317.096z
	 M250.925,317.096h1.272v72.699h-1.272V317.096z M253.426,317.096h1.272v72.699h-1.272V317.096z M255.994,317.096h1.273v72.699
	h-1.273V317.096z M258.495,317.096h1.272v72.699h-1.272V317.096z M258.495,314.993v-72.634h1.272v72.634H258.495z M258.495,240.254
	v-72.699h1.272v72.699H258.495z M257.266,240.254h-1.273v-72.699h1.273V240.254z M254.699,240.254h-1.272v-72.699h1.272V240.254z
	 M252.197,240.254h-1.272v-72.699h1.272V240.254z M249.608,240.254h-1.251v-72.699h1.251V240.254z M247.128,240.254h-6.341v-72.699
	h6.341V240.254z M239.492,240.254h-1.272v-72.699h1.272V240.254z M236.925,240.254h-1.207v-72.699h1.207V240.254z M234.423,240.254
	h-1.273v-72.699h1.273V240.254z M231.856,240.254h-1.272v-72.699h1.272V240.254z M229.354,240.254h-1.273v-72.699h1.273V240.254z
	 M226.787,240.254h-1.273v-72.699h1.273V240.254z M224.285,240.254h-1.273v-72.699h1.273V240.254z M221.718,240.254h-6.342v-72.699
	h6.342V240.254z M214.082,240.254h-1.207v-72.699h1.207V240.254z M211.58,240.254h-1.273v-72.699h1.273V240.254z M209.013,240.254
	h-1.273v-72.699h1.273V240.254z M206.511,240.254h-1.272v-72.699h1.272V240.254z M203.943,240.254h-1.273v-72.699h1.273V240.254z
	 M201.42,240.254h-1.251v-72.699h1.251V240.254z M198.874,240.254h-1.272v-72.699h1.272V240.254z M196.373,240.254h-6.341v-72.699
	h6.341V240.254z M188.715,240.254h-1.251v-72.699h1.251V240.254z M186.169,240.254h-1.272v-72.699h1.272V240.254z M183.668,240.254
	h-1.273v-72.699h1.273V240.254z M181.1,240.254h-1.273v-72.699h1.273V240.254z M178.599,240.254h-1.272v-72.699h1.272V240.254z
	 M176.031,240.254h-1.273v-72.699h1.273V240.254z M173.53,240.254h-1.273v-72.699h1.273V240.254z M170.962,240.254h-6.341v-72.699
	h6.341V240.254z M163.326,240.254h-1.272v-72.699h1.272V240.254z M160.825,240.254h-1.273v-72.699h1.273V240.254z M158.257,240.254
	h-1.272v-72.699h1.272V240.254z M155.755,240.254h-1.273v-72.699h1.273V240.254z M153.188,240.254h-1.273v-72.699h1.273V240.254z
	 M150.686,240.254h-1.273v-72.699h1.273V240.254z M148.119,240.254h-1.273v-72.699h1.273V240.254z M145.617,240.254h-6.341v-72.699
	h6.341V240.254z M137.981,240.254h-1.272v-72.699h1.272V240.254z M135.414,240.254h-1.273v-72.699h1.273V240.254z M132.912,240.254
	h-1.272v-72.699h1.272V240.254z M130.345,240.254h-1.273v-72.699h1.273V240.254z M127.821,240.254h-1.251v-72.699h1.251V240.254z
	 M125.254,240.254h-1.251v-72.699h1.251V240.254z M122.774,240.254h-1.273v-72.699h1.273V240.254z M120.207,240.254h-6.342v-72.699
	h6.342V240.254z M112.549,240.254h-1.251v-72.699h1.251V240.254z M110.069,240.254h-1.272v-72.699h1.272V240.254z M107.502,240.254
	h-1.273v-72.699h1.273V240.254z M105,240.254h-1.273v-72.699H105V240.254z M102.432,240.254h-1.272v-72.699h1.272V240.254z
	 M99.931,240.254h-1.273v-72.699h1.273V240.254z M97.363,240.254h-1.272v-72.699h1.272V240.254z M94.862,240.254h-6.407v-72.699
	h6.407V240.254z M87.226,240.254h-1.273v-72.699h1.273V240.254z M84.658,240.254h-1.273v-72.699h1.273V240.254z M82.157,240.254
	h-1.273v-72.699h1.273V240.254z M79.589,240.254h-1.273v-72.699h1.273V240.254z M77.088,240.254h-1.272v-72.699h1.272V240.254z
	 M74.52,240.254h-1.273v-72.699h1.273V240.254z M72.018,240.254h-1.272v-72.699h1.272V240.254z M69.451,240.254H63.11v-72.699h6.341
	V240.254z M61.815,240.254h-1.273v-72.699h1.273V240.254z M59.314,240.254h-1.273v-72.699h1.273V240.254z M56.746,240.254h-1.273
	v-72.699h1.273V240.254z M54.244,240.254h-1.273v-72.699h1.273V240.254z M51.655,240.254h-1.251v-72.699h1.251V240.254z
	 M49.175,240.254h-1.251v-72.699h1.251V240.254z M46.608,240.254h-1.273v-72.699h1.273V240.254z M44.107,240.254h-6.408v-72.699
	h6.408V240.254z M36.47,240.254h-1.272v-72.699h1.272V240.254z M33.903,240.254H32.63v-72.699h1.273V240.254z M31.401,240.254
	h-1.273v-72.699h1.273V240.254z M28.834,240.254h-1.273v-72.699h1.273V240.254z M26.332,240.254h-1.273v-72.699h1.273V240.254z
	 M26.332,242.359v72.634h-1.273v-72.634H26.332z M26.332,317.096v72.699h-1.273v-72.699H26.332z M261.063,389.796v-72.699h1.251
	v72.699H261.063z M261.063,314.993v-72.634h1.251v72.634H261.063z M261.063,240.254v-72.699h1.251v72.699H261.063z M23.765,167.555
	v72.699h-1.273v-72.699H23.765z M23.765,242.359v72.634h-1.273v-72.634H23.765z M23.765,317.096v72.699h-1.273v-72.699H23.765z
	 M22.492,391.9h1.273v72.699h-1.273V391.9z M25.059,391.9h1.273v72.699h-1.273V391.9z M27.561,391.9h1.273v72.699h-1.273V391.9z
	 M30.128,391.9h1.273v72.699h-1.273V391.9z M32.63,391.9h1.273v72.699H32.63V391.9z M35.198,391.9h1.272v72.699h-1.272V391.9z
	 M37.699,391.9h6.408v72.699h-6.408V391.9z M45.335,391.9h1.273v72.699h-1.273V391.9z M47.925,391.9h1.251v72.699h-1.251V391.9z
	 M50.404,391.9h1.251v72.699h-1.251V391.9z M52.972,391.9h1.273v72.699h-1.273V391.9z M55.473,391.9h1.273v72.699h-1.273V391.9z
	 M58.041,391.9h1.273v72.699h-1.273V391.9z M60.542,391.9h1.273v72.699h-1.273V391.9z M63.11,391.9h6.341v72.699H63.11V391.9z
	 M70.746,391.9h1.272v72.699h-1.272V391.9z M73.247,391.9h1.273v72.699h-1.273V391.9z M75.815,391.9h1.272v72.699h-1.272V391.9z
	 M78.316,391.9h1.273v72.699h-1.273V391.9z M80.884,391.9h1.273v72.699h-1.273V391.9z M83.386,391.9h1.273v72.699h-1.273V391.9z
	 M85.953,391.9h1.273v72.699h-1.273V391.9z M88.455,391.9h6.407v72.699h-6.407V391.9z M96.091,391.9h1.272v72.699h-1.272V391.9z
	 M98.658,391.9h1.273v72.699h-1.273V391.9z M101.16,391.9h1.272v72.699h-1.272V391.9z M103.727,391.9H105v72.699h-1.273V391.9z
	 M106.229,391.9h1.273v72.699h-1.273V391.9z M108.796,391.9h1.272v72.699h-1.272V391.9z M111.298,391.9h1.251v72.699h-1.251V391.9z
	 M113.865,391.9h6.342v72.699h-6.342V391.9z M121.501,391.9h1.273v72.699h-1.273V391.9z M124.003,391.9h1.251v72.699h-1.251V391.9z
	 M126.57,391.9h1.251v72.699h-1.251V391.9z M129.072,391.9h1.273v72.699h-1.273V391.9z M131.639,391.9h1.272v72.699h-1.272V391.9z
	 M134.141,391.9h1.273v72.699h-1.273V391.9z M136.709,391.9h1.272v72.699h-1.272V391.9z M139.276,391.9h6.341v72.699h-6.341V391.9z
	 M146.846,391.9h1.273v72.699h-1.273V391.9z M149.413,391.9h1.273v72.699h-1.273V391.9z M151.915,391.9h1.273v72.699h-1.273V391.9z
	 M154.483,391.9h1.273v72.699h-1.273V391.9z M156.984,391.9h1.272v72.699h-1.272V391.9z M159.552,391.9h1.273v72.699h-1.273V391.9z
	 M162.054,391.9h1.272v72.699h-1.272V391.9z M164.621,391.9h6.341v72.699h-6.341V391.9z M172.257,391.9h1.273v72.699h-1.273V391.9z
	 M174.758,391.9h1.273v72.699h-1.273V391.9z M177.326,391.9h1.272v72.699h-1.272V391.9z M179.828,391.9h1.273v72.699h-1.273V391.9z
	 M182.395,391.9h1.273v72.699h-1.273V391.9z M184.897,391.9h1.272v72.699h-1.272V391.9z M187.464,391.9h1.251v72.699h-1.251V391.9z
	 M190.032,391.9h6.341v72.699h-6.341V391.9z M197.602,391.9h1.272v72.699h-1.272V391.9z M200.169,391.9h1.251v72.699h-1.251V391.9z
	 M202.671,391.9h1.273v72.699h-1.273V391.9z M205.238,391.9h1.272v72.699h-1.272V391.9z M207.74,391.9h1.273v72.699h-1.273V391.9z
	 M210.307,391.9h1.273v72.699h-1.273V391.9z M212.875,391.9h1.207v72.699h-1.207V391.9z M215.376,391.9h6.342v72.699h-6.342V391.9z
	 M223.012,391.9h1.273v72.699h-1.273V391.9z M225.514,391.9h1.273v72.699h-1.273V391.9z M228.081,391.9h1.273v72.699h-1.273V391.9z
	 M230.583,391.9h1.272v72.699h-1.272V391.9z M233.151,391.9h1.273v72.699h-1.273V391.9z M235.718,391.9h1.207v72.699h-1.207V391.9z
	 M238.22,391.9h1.272v72.699h-1.272V391.9z M240.787,391.9h6.341v72.699h-6.341V391.9z M248.357,391.9h1.251v72.699h-1.251V391.9z
	 M250.925,391.9h1.272v72.699h-1.272V391.9z M253.426,391.9h1.272v72.699h-1.272V391.9z M255.994,391.9h1.273v72.699h-1.273V391.9z
	 M258.495,391.9h1.272v72.699h-1.272V391.9z M261.063,391.9h1.251v72.699h-1.251V391.9z M262.314,165.452h-1.251V92.817h1.251
	V165.452z M259.768,165.452h-1.272V92.817h1.272V165.452z M257.266,165.452h-1.273V92.817h1.273V165.452z M254.699,165.452h-1.272
	V92.817h1.272V165.452z M252.197,165.452h-1.272V92.817h1.272V165.452z M249.608,165.452h-1.251V92.817h1.251V165.452z
	 M247.128,165.452h-6.341V92.817h6.341V165.452z M239.492,165.452h-1.272V92.817h1.272V165.452z M236.925,165.452h-1.207V92.817
	h1.207V165.452z M234.423,165.452h-1.273V92.817h1.273V165.452z M231.856,165.452h-1.272V92.817h1.272V165.452z M229.354,165.452
	h-1.273V92.817h1.273V165.452z M226.787,165.452h-1.273V92.817h1.273V165.452z M224.285,165.452h-1.273V92.817h1.273V165.452z
	 M221.718,165.452h-6.342V92.817h6.342V165.452z M214.082,165.452h-1.207V92.817h1.207V165.452z M211.58,165.452h-1.273V92.817
	h1.273V165.452z M209.013,165.452h-1.273V92.817h1.273V165.452z M206.511,165.452h-1.272V92.817h1.272V165.452z M203.943,165.452
	h-1.273V92.817h1.273V165.452z M201.42,165.452h-1.251V92.817h1.251V165.452z M198.874,165.452h-1.272V92.817h1.272V165.452z
	 M196.373,165.452h-6.341V92.817h6.341V165.452z M188.715,165.452h-1.251V92.817h1.251V165.452z M186.169,165.452h-1.272V92.817
	h1.272V165.452z M183.668,165.452h-1.273V92.817h1.273V165.452z M181.1,165.452h-1.273V92.817h1.273V165.452z M178.599,165.452
	h-1.272V92.817h1.272V165.452z M176.031,165.452h-1.273V92.817h1.273V165.452z M173.53,165.452h-1.273V92.817h1.273V165.452z
	 M170.962,165.452h-6.341V92.817h6.341V165.452z M163.326,165.452h-1.272V92.817h1.272V165.452z M160.825,165.452h-1.273V92.817
	h1.273V165.452z M158.257,165.452h-1.272V92.817h1.272V165.452z M155.755,165.452h-1.273V92.817h1.273V165.452z M153.188,165.452
	h-1.273V92.817h1.273V165.452z M150.686,165.452h-1.273V92.817h1.273V165.452z M148.119,165.452h-1.273V92.817h1.273V165.452z
	 M145.617,165.452h-6.341V92.817h6.341V165.452z M137.981,165.452h-1.272V92.817h1.272V165.452z M135.414,165.452h-1.273V92.817
	h1.273V165.452z M132.912,165.452h-1.272V92.817h1.272V165.452z M130.345,165.452h-1.273V92.817h1.273V165.452z M127.821,165.452
	h-1.251V92.817h1.251V165.452z M125.254,165.452h-1.251V92.817h1.251V165.452z M122.774,165.452h-1.273V92.817h1.273V165.452z
	 M120.207,165.452h-6.342V92.817h6.342V165.452z M112.549,165.452h-1.251V92.817h1.251V165.452z M110.069,165.452h-1.272V92.817
	h1.272V165.452z M107.502,165.452h-1.273V92.817h1.273V165.452z M105,165.452h-1.273V92.817H105V165.452z M102.432,165.452h-1.272
	V92.817h1.272V165.452z M99.931,165.452h-1.273V92.817h1.273V165.452z M97.363,165.452h-1.272V92.817h1.272V165.452z
	 M94.862,165.452h-6.407V92.817h6.407V165.452z M87.226,165.452h-1.273V92.817h1.273V165.452z M84.658,165.452h-1.273V92.817h1.273
	V165.452z M82.157,165.452h-1.273V92.817h1.273V165.452z M79.589,165.452h-1.273V92.817h1.273V165.452z M77.088,165.452h-1.272
	V92.817h1.272V165.452z M74.52,165.452h-1.273V92.817h1.273V165.452z M72.018,165.452h-1.272V92.817h1.272V165.452z M69.451,165.452
	H63.11V92.817h6.341V165.452z M61.815,165.452h-1.273V92.817h1.273V165.452z M59.314,165.452h-1.273V92.817h1.273V165.452z
	 M56.746,165.452h-1.273V92.817h1.273V165.452z M54.244,165.452h-1.273V92.817h1.273V165.452z M51.655,165.452h-1.251V92.817h1.251
	V165.452z M49.175,165.452h-1.251V92.817h1.251V165.452z M46.608,165.452h-1.273V92.817h1.273V165.452z M44.107,165.452h-6.408
	V92.817h6.408V165.452z M36.47,165.452h-1.272V92.817h1.272V165.452z M33.903,165.452H32.63V92.817h1.273V165.452z M31.401,165.452
	h-1.273V92.817h1.273V165.452z M28.834,165.452h-1.273V92.817h1.273V165.452z M26.332,165.452h-1.273V92.817h1.273V165.452z
	 M23.765,165.452h-1.273V92.817h1.273V165.452z M263.63,464.599V391.9h1.273v72.699H263.63z M263.63,389.796v-72.699h1.273v72.699
	H263.63z M263.63,314.993v-72.634h1.273v72.634H263.63z M263.63,240.254v-72.699h1.273v72.699H263.63z M263.63,165.452V92.817h1.273
	v72.634H263.63z M21.263,92.817v72.634h-1.273V92.817H21.263z M21.263,167.555v72.699h-1.273v-72.699H21.263z M21.263,242.359
	v72.634h-1.273v-72.634H21.263z M21.263,317.096v72.699h-1.273v-72.699H21.263z M21.263,391.9v72.699h-1.273V391.9H21.263z
	 M266.132,464.599V391.9h6.276v72.699H266.132z M266.132,389.796v-72.699h6.276v72.699H266.132z M266.132,314.993v-72.634h6.276
	v72.634H266.132z M266.132,240.254v-72.699h6.276v72.699H266.132z M266.132,165.452V92.817h6.276v72.634H266.132z M18.696,92.817
	v72.634h-6.342V92.817H18.696z M18.696,167.555v72.699h-6.342v-72.699H18.696z M18.696,242.359v72.634h-6.342v-72.634H18.696z
	 M18.696,317.096v72.699h-6.342v-72.699H18.696z M18.696,391.9v72.699h-6.342V391.9H18.696z M19.991,466.703h1.273V539.4h-1.273
	V466.703z M22.492,466.703h1.273V539.4h-1.273V466.703z M25.059,466.703h1.273V539.4h-1.273V466.703z M27.561,466.703h1.273V539.4
	h-1.273V466.703z M30.128,466.703h1.273V539.4h-1.273V466.703z M32.63,466.703h1.273V539.4H32.63V466.703z M35.198,466.703h1.272
	V539.4h-1.272V466.703z M37.699,466.703h6.408V539.4h-6.408V466.703z M45.335,466.703h1.273V539.4h-1.273V466.703z M47.925,466.703
	h1.251V539.4h-1.251V466.703z M50.404,466.703h1.251V539.4h-1.251V466.703z M52.972,466.703h1.273V539.4h-1.273V466.703z
	 M55.473,466.703h1.273V539.4h-1.273V466.703z M58.041,466.703h1.273V539.4h-1.273V466.703z M60.542,466.703h1.273V539.4h-1.273
	V466.703z M63.11,466.703h6.341V539.4H63.11V466.703z M70.746,466.703h1.272V539.4h-1.272V466.703z M73.247,466.703h1.273V539.4
	h-1.273V466.703z M75.815,466.703h1.272V539.4h-1.272V466.703z M78.316,466.703h1.273V539.4h-1.273V466.703z M80.884,466.703h1.273
	V539.4h-1.273V466.703z M83.386,466.703h1.273V539.4h-1.273V466.703z M85.953,466.703h1.273V539.4h-1.273V466.703z M88.455,466.703
	h6.407V539.4h-6.407V466.703z M96.091,466.703h1.272V539.4h-1.272V466.703z M98.658,466.703h1.273V539.4h-1.273V466.703z
	 M101.16,466.703h1.272V539.4h-1.272V466.703z M103.727,466.703H105V539.4h-1.273V466.703z M106.229,466.703h1.273V539.4h-1.273
	V466.703z M108.796,466.703h1.272V539.4h-1.272V466.703z M111.298,466.703h1.251V539.4h-1.251V466.703z M113.865,466.703h6.342
	V539.4h-6.342V466.703z M121.501,466.703h1.273V539.4h-1.273V466.703z M124.003,466.703h1.251V539.4h-1.251V466.703z
	 M126.57,466.703h1.251V539.4h-1.251V466.703z M129.072,466.703h1.273V539.4h-1.273V466.703z M131.639,466.703h1.272V539.4h-1.272
	V466.703z M134.141,466.703h1.273V539.4h-1.273V466.703z M136.709,466.703h1.272V539.4h-1.272V466.703z M139.276,466.703h6.341
	V539.4h-6.341V466.703z M146.846,466.703h1.273V539.4h-1.273V466.703z M149.413,466.703h1.273V539.4h-1.273V466.703z
	 M151.915,466.703h1.273V539.4h-1.273V466.703z M154.483,466.703h1.273V539.4h-1.273V466.703z M156.984,466.703h1.272V539.4h-1.272
	V466.703z M159.552,466.703h1.273V539.4h-1.273V466.703z M162.054,466.703h1.272V539.4h-1.272V466.703z M164.621,466.703h6.341
	V539.4h-6.341V466.703z M172.257,466.703h1.273V539.4h-1.273V466.703z M174.758,466.703h1.273V539.4h-1.273V466.703z
	 M177.326,466.703h1.272V539.4h-1.272V466.703z M179.828,466.703h1.273V539.4h-1.273V466.703z M182.395,466.703h1.273V539.4h-1.273
	V466.703z M184.897,466.703h1.272V539.4h-1.272V466.703z M187.464,466.703h1.251V539.4h-1.251V466.703z M190.032,466.703h6.341
	V539.4h-6.341V466.703z M197.602,466.703h1.272V539.4h-1.272V466.703z M200.169,466.703h1.251V539.4h-1.251V466.703z
	 M202.671,466.703h1.273V539.4h-1.273V466.703z M205.238,466.703h1.272V539.4h-1.272V466.703z M207.74,466.703h1.273V539.4h-1.273
	V466.703z M210.307,466.703h1.273V539.4h-1.273V466.703z M212.875,466.703h1.207V539.4h-1.207V466.703z M215.376,466.703h6.342
	V539.4h-6.342V466.703z M223.012,466.703h1.273V539.4h-1.273V466.703z M225.514,466.703h1.273V539.4h-1.273V466.703z
	 M228.081,466.703h1.273V539.4h-1.273V466.703z M230.583,466.703h1.272V539.4h-1.272V466.703z M233.151,466.703h1.273V539.4h-1.273
	V466.703z M235.718,466.703h1.207V539.4h-1.207V466.703z M238.22,466.703h1.272V539.4h-1.272V466.703z M240.787,466.703h6.341V539.4
	h-6.341V466.703z M248.357,466.703h1.251V539.4h-1.251V466.703z M250.925,466.703h1.272V539.4h-1.272V466.703z M253.426,466.703
	h1.272V539.4h-1.272V466.703z M255.994,466.703h1.273V539.4h-1.273V466.703z M258.495,466.703h1.272V539.4h-1.272V466.703z
	 M261.063,466.703h1.251V539.4h-1.251V466.703z M263.63,466.703h1.273V539.4h-1.273V466.703z M266.132,466.703h6.276V539.4h-6.276
	V466.703z M272.407,90.648h-6.276V18.011h6.276V90.648z M264.903,90.648h-1.273V18.011h1.273V90.648z M262.314,90.648h-1.251V18.011
	h1.251V90.648z M259.768,90.648h-1.272V18.011h1.272V90.648z M257.266,90.648h-1.273V18.011h1.273V90.648z M254.699,90.648h-1.272
	V18.011h1.272V90.648z M252.197,90.648h-1.272V18.011h1.272V90.648z M249.608,90.648h-1.251V18.011h1.251V90.648z M247.128,90.648
	h-6.341V18.011h6.341V90.648z M239.492,90.648h-1.272V18.011h1.272V90.648z M236.925,90.648h-1.207V18.011h1.207V90.648z
	 M234.423,90.648h-1.273V18.011h1.273V90.648z M231.856,90.648h-1.272V18.011h1.272V90.648z M229.354,90.648h-1.273V18.011h1.273
	V90.648z M226.787,90.648h-1.273V18.011h1.273V90.648z M224.285,90.648h-1.273V18.011h1.273V90.648z M221.718,90.648h-6.342V18.011
	h6.342V90.648z M214.082,90.648h-1.207V18.011h1.207V90.648z M211.58,90.648h-1.273V18.011h1.273V90.648z M209.013,90.648h-1.273
	V18.011h1.273V90.648z M206.511,90.648h-1.272V18.011h1.272V90.648z M203.943,90.648h-1.273V18.011h1.273V90.648z M201.42,90.648
	h-1.251V18.011h1.251V90.648z M198.874,90.648h-1.272V18.011h1.272V90.648z M196.373,90.648h-6.341V18.011h6.341V90.648z
	 M188.715,90.648h-1.251V18.011h1.251V90.648z M186.169,90.648h-1.272V18.011h1.272V90.648z M183.668,90.648h-1.273V18.011h1.273
	V90.648z M181.1,90.648h-1.273V18.011h1.273V90.648z M178.599,90.648h-1.272V18.011h1.272V90.648z M176.031,90.648h-1.273V18.011
	h1.273V90.648z M173.53,90.648h-1.273V18.011h1.273V90.648z M170.962,90.648h-6.341V18.011h6.341V90.648z M163.326,90.648h-1.272
	V18.011h1.272V90.648z M160.825,90.648h-1.273V18.011h1.273V90.648z M158.257,90.648h-1.272V18.011h1.272V90.648z M155.755,90.648
	h-1.273V18.011h1.273V90.648z M153.188,90.648h-1.273V18.011h1.273V90.648z M150.686,90.648h-1.273V18.011h1.273V90.648z
	 M148.119,90.648h-1.273V18.011h1.273V90.648z M145.617,90.648h-6.341V18.011h6.341V90.648z M137.981,90.648h-1.272V18.011h1.272
	V90.648z M135.414,90.648h-1.273V18.011h1.273V90.648z M132.912,90.648h-1.272V18.011h1.272V90.648z M130.345,90.648h-1.273V18.011
	h1.273V90.648z M127.821,90.648h-1.251V18.011h1.251V90.648z M125.254,90.648h-1.251V18.011h1.251V90.648z M122.774,90.648h-1.273
	V18.011h1.273V90.648z M120.207,90.648h-6.342V18.011h6.342V90.648z M112.549,90.648h-1.251V18.011h1.251V90.648z M110.069,90.648
	h-1.272V18.011h1.272V90.648z M107.502,90.648h-1.273V18.011h1.273V90.648z M105,90.648h-1.273V18.011H105V90.648z M102.432,90.648
	h-1.272V18.011h1.272V90.648z M99.931,90.648h-1.273V18.011h1.273V90.648z M97.363,90.648h-1.272V18.011h1.272V90.648z
	 M94.862,90.648h-6.407V18.011h6.407V90.648z M87.226,90.648h-1.273V18.011h1.273V90.648z M84.658,90.648h-1.273V18.011h1.273
	V90.648z M82.157,90.648h-1.273V18.011h1.273V90.648z M79.589,90.648h-1.273V18.011h1.273V90.648z M77.088,90.648h-1.272V18.011
	h1.272V90.648z M74.52,90.648h-1.273V18.011h1.273V90.648z M72.018,90.648h-1.272V18.011h1.272V90.648z M69.451,90.648H63.11V18.011
	h6.341V90.648z M61.815,90.648h-1.273V18.011h1.273V90.648z M59.314,90.648h-1.273V18.011h1.273V90.648z M56.746,90.648h-1.273
	V18.011h1.273V90.648z M54.244,90.648h-1.273V18.011h1.273V90.648z M51.655,90.648h-1.251V18.011h1.251V90.648z M49.175,90.648
	h-1.251V18.011h1.251V90.648z M46.608,90.648h-1.273V18.011h1.273V90.648z M44.107,90.648h-6.408V18.011h6.408V90.648z
	 M36.47,90.648h-1.272V18.011h1.272V90.648z M33.903,90.648H32.63V18.011h1.273V90.648z M31.401,90.648h-1.273V18.011h1.273V90.648z
	 M28.834,90.648h-1.273V18.011h1.273V90.648z M26.332,90.648h-1.273V18.011h1.273V90.648z M23.765,90.648h-1.273V18.011h1.273
	V90.648z M21.263,90.648h-1.273V18.011h1.273V90.648z M18.696,90.648h-6.342V18.011h6.342V90.648z"/>
</svg>
